<?xml version="1.0" encoding="utf-8"?>
<!-- Generator: Adobe Illustrator 16.0.0, SVG Export Plug-In . SVG Version: 6.00 Build 0)  -->
<!DOCTYPE svg PUBLIC "-//W3C//DTD SVG 1.1//EN" "http://www.w3.org/Graphics/SVG/1.1/DTD/svg11.dtd">
<svg version="1.1" id="Layer_1" xmlns="http://www.w3.org/2000/svg" xmlns:xlink="http://www.w3.org/1999/xlink" x="0px" y="0px"
	 width="76.189px" height="15.429px" viewBox="0 0 76.189 15.429" enable-background="new 0 0 76.189 15.429" xml:space="preserve">
<g>
	<path fill="#FFFFFF" d="M18,2.25v10.929c0,0.441-0.158,0.82-0.473,1.135s-0.693,0.473-1.135,0.473H1.607
		c-0.441,0-0.82-0.158-1.135-0.473C0.157,13.999,0,13.62,0,13.179V2.25c0-0.442,0.157-0.82,0.472-1.135
		C0.787,0.8,1.166,0.643,1.607,0.643h14.786c0.441,0,0.82,0.157,1.135,0.472C17.842,1.43,18,1.808,18,2.25z M16.714,2.622
		c0-0.013,0-0.05,0-0.11c0-0.061,0-0.105,0-0.136s-0.002-0.074-0.005-0.13c-0.004-0.057-0.014-0.099-0.03-0.125
		s-0.035-0.057-0.056-0.091c-0.02-0.033-0.05-0.058-0.09-0.075c-0.04-0.017-0.087-0.025-0.141-0.025H1.607
		c-0.087,0-0.162,0.032-0.226,0.095C1.318,2.088,1.286,2.163,1.286,2.25c0,1.125,0.492,2.076,1.477,2.853
		c1.292,1.018,2.635,2.08,4.028,3.184c0.04,0.034,0.157,0.132,0.352,0.296C7.335,8.747,7.49,8.873,7.604,8.96
		c0.113,0.087,0.263,0.192,0.447,0.316C8.235,9.4,8.404,9.492,8.558,9.552C8.712,9.612,8.856,9.644,8.99,9.644H9h0.01
		c0.134,0,0.277-0.031,0.432-0.092C9.596,9.492,9.765,9.4,9.95,9.276c0.184-0.124,0.333-0.229,0.446-0.316
		c0.114-0.087,0.268-0.213,0.462-0.377s0.312-0.263,0.352-0.296c1.394-1.104,2.735-2.166,4.028-3.184
		c0.361-0.288,0.698-0.674,1.01-1.16C16.559,3.457,16.714,3.017,16.714,2.622z M16.714,13.179V5.464
		c-0.215,0.241-0.445,0.462-0.693,0.663c-1.795,1.379-3.221,2.51-4.278,3.395c-0.342,0.288-0.62,0.512-0.834,0.673
		c-0.215,0.161-0.504,0.323-0.869,0.487s-0.708,0.246-1.029,0.246H9H8.99c-0.321,0-0.664-0.082-1.029-0.246
		s-0.654-0.326-0.869-0.487c-0.214-0.161-0.492-0.385-0.833-0.673C5.2,8.638,3.773,7.507,1.979,6.127
		C1.731,5.926,1.5,5.706,1.286,5.464v7.714c0,0.087,0.032,0.162,0.096,0.227C1.445,13.468,1.52,13.5,1.607,13.5h14.786
		c0.087,0,0.162-0.032,0.226-0.095C16.682,13.341,16.714,13.266,16.714,13.179z"/>
</g>
<g>
	<path fill="#FFFFFF" d="M35.187,1.034C36.369,0.345,37.66,0,39.058,0c1.4,0,2.691,0.345,3.873,1.034s2.117,1.626,2.807,2.808
		c0.691,1.182,1.035,2.473,1.035,3.872s-0.344,2.69-1.035,3.872c-0.689,1.183-1.625,2.118-2.807,2.808s-2.473,1.035-3.873,1.035
		c-1.398,0-2.689-0.346-3.871-1.035s-2.117-1.625-2.809-2.808c-0.689-1.182-1.033-2.473-1.033-3.872s0.344-2.69,1.033-3.872
		C33.07,2.66,34.005,1.724,35.187,1.034z M41.812,5.233c-0.014,0.006-0.047,0.038-0.096,0.095c-0.051,0.058-0.096,0.089-0.137,0.096
		c0.014,0,0.029-0.017,0.045-0.05c0.018-0.034,0.035-0.07,0.051-0.111c0.018-0.04,0.029-0.063,0.035-0.07
		c0.041-0.046,0.113-0.097,0.221-0.15c0.094-0.04,0.268-0.08,0.523-0.12c0.227-0.054,0.398-0.017,0.512,0.11
		c-0.014-0.014,0.018-0.057,0.096-0.131c0.076-0.073,0.125-0.113,0.145-0.12c0.021-0.014,0.07-0.028,0.152-0.046
		c0.08-0.017,0.129-0.041,0.15-0.075l0.02-0.221c-0.08,0.007-0.139-0.017-0.176-0.07s-0.059-0.124-0.064-0.211
		c0,0.014-0.021,0.04-0.061,0.08c0-0.047-0.016-0.073-0.045-0.08c-0.031-0.007-0.07-0.003-0.117,0.01
		c-0.047,0.014-0.076,0.017-0.09,0.011c-0.066-0.021-0.117-0.046-0.15-0.076c-0.033-0.029-0.061-0.085-0.08-0.165
		c-0.02-0.081-0.033-0.131-0.041-0.151c-0.014-0.033-0.045-0.068-0.096-0.105c-0.049-0.036-0.082-0.071-0.094-0.105
		C42.507,3.563,42.5,3.544,42.49,3.521s-0.021-0.045-0.031-0.065s-0.023-0.038-0.039-0.056c-0.018-0.017-0.035-0.024-0.057-0.024
		c-0.02,0-0.043,0.017-0.07,0.05c-0.025,0.034-0.051,0.067-0.074,0.101s-0.039,0.05-0.045,0.05
		c-0.021-0.013-0.041-0.018-0.061-0.015c-0.02,0.004-0.035,0.007-0.045,0.01c-0.01,0.004-0.025,0.014-0.045,0.03
		c-0.021,0.017-0.037,0.028-0.051,0.035c-0.02,0.014-0.049,0.023-0.086,0.03S41.822,3.68,41.8,3.687
		c0.102-0.034,0.098-0.07-0.01-0.111c-0.066-0.026-0.119-0.036-0.16-0.029c0.061-0.027,0.086-0.067,0.076-0.121
		c-0.012-0.054-0.039-0.101-0.086-0.141h0.051c-0.008-0.026-0.035-0.055-0.086-0.085s-0.109-0.059-0.176-0.086
		c-0.066-0.026-0.111-0.047-0.131-0.06c-0.053-0.034-0.168-0.065-0.342-0.096s-0.285-0.032-0.332-0.005
		c-0.033,0.04-0.047,0.075-0.045,0.105c0.004,0.03,0.018,0.077,0.041,0.141s0.035,0.105,0.035,0.125
		c0.006,0.04-0.012,0.084-0.055,0.131c-0.045,0.047-0.066,0.087-0.066,0.12c0,0.047,0.047,0.1,0.141,0.156s0.127,0.129,0.102,0.216
		c-0.021,0.054-0.074,0.107-0.162,0.161c-0.086,0.054-0.141,0.094-0.16,0.12c-0.033,0.054-0.039,0.115-0.016,0.186
		s0.059,0.126,0.105,0.166c0.014,0.014,0.02,0.026,0.016,0.04s-0.016,0.028-0.035,0.045c-0.02,0.018-0.039,0.03-0.055,0.041
		c-0.018,0.01-0.039,0.021-0.066,0.035l-0.029,0.02c-0.074,0.034-0.143,0.014-0.207-0.061c-0.063-0.073-0.107-0.16-0.135-0.261
		c-0.047-0.167-0.1-0.268-0.16-0.302c-0.154-0.053-0.252-0.05-0.291,0.011c-0.035-0.087-0.172-0.175-0.412-0.262
		c-0.168-0.06-0.361-0.073-0.584-0.04c0.041-0.007,0.041-0.057,0-0.15c-0.047-0.101-0.109-0.141-0.189-0.121
		c0.02-0.04,0.033-0.099,0.039-0.176c0.008-0.076,0.01-0.122,0.01-0.135c0.021-0.087,0.061-0.164,0.121-0.231
		c0.008-0.007,0.031-0.035,0.07-0.085c0.041-0.051,0.072-0.096,0.096-0.136s0.025-0.061,0.006-0.061
		c0.234,0.026,0.4-0.01,0.502-0.11c0.033-0.033,0.072-0.091,0.115-0.171s0.078-0.137,0.105-0.171
		c0.061-0.04,0.107-0.059,0.141-0.055c0.033,0.003,0.082,0.021,0.145,0.055c0.064,0.034,0.113,0.051,0.146,0.051
		c0.094,0.006,0.146-0.03,0.156-0.111c0.01-0.08-0.016-0.146-0.076-0.2c0.08,0.007,0.09-0.051,0.031-0.171
		c-0.035-0.047-0.061-0.077-0.082-0.091c-0.08-0.026-0.17-0.01-0.27,0.051c-0.055,0.026-0.047,0.054,0.02,0.08
		c-0.008-0.007-0.039,0.028-0.096,0.105s-0.111,0.136-0.166,0.176c-0.053,0.04-0.107,0.023-0.16-0.05
		c-0.008-0.007-0.025-0.052-0.055-0.136c-0.031-0.084-0.063-0.129-0.096-0.136c-0.055,0-0.107,0.05-0.162,0.15
		c0.021-0.054-0.016-0.104-0.109-0.15s-0.174-0.074-0.242-0.08c0.129-0.081,0.102-0.171-0.08-0.271
		c-0.047-0.026-0.115-0.044-0.205-0.051c-0.09-0.006-0.156,0.007-0.195,0.041c-0.035,0.047-0.053,0.085-0.057,0.115
		c-0.002,0.03,0.014,0.057,0.051,0.08s0.072,0.042,0.105,0.056s0.072,0.026,0.115,0.04s0.072,0.023,0.086,0.03
		c0.094,0.066,0.121,0.113,0.08,0.141c-0.014,0.007-0.041,0.019-0.086,0.035c-0.043,0.017-0.082,0.031-0.115,0.045
		s-0.053,0.026-0.061,0.04c-0.02,0.027-0.02,0.074,0,0.141c0.021,0.067,0.014,0.114-0.02,0.141c-0.033-0.033-0.064-0.092-0.09-0.176
		c-0.027-0.084-0.051-0.139-0.07-0.166c0.047,0.061-0.037,0.081-0.252,0.061l-0.1-0.01c-0.027,0-0.08,0.007-0.162,0.02
		c-0.08,0.014-0.148,0.018-0.205,0.011s-0.102-0.034-0.135-0.081c-0.027-0.053-0.027-0.12,0-0.2c0.006-0.027,0.02-0.034,0.039-0.021
		c-0.027-0.02-0.063-0.052-0.109-0.096C37.054,1.669,37.019,1.641,37,1.627c-0.309,0.101-0.623,0.237-0.943,0.412
		c0.039,0.007,0.08,0.003,0.119-0.011c0.035-0.013,0.078-0.035,0.131-0.064c0.055-0.03,0.088-0.049,0.102-0.056
		c0.227-0.094,0.367-0.117,0.422-0.07l0.049-0.05c0.094,0.106,0.162,0.19,0.201,0.251c-0.047-0.027-0.146-0.03-0.301-0.011
		c-0.135,0.041-0.207,0.081-0.221,0.121c0.047,0.08,0.063,0.141,0.051,0.181c-0.027-0.021-0.066-0.054-0.117-0.101
		c-0.049-0.047-0.098-0.084-0.145-0.11s-0.098-0.044-0.15-0.05c-0.107,0-0.182,0.003-0.221,0.01
		c-0.979,0.536-1.766,1.279-2.361,2.229c0.047,0.047,0.088,0.074,0.121,0.081c0.025,0.006,0.043,0.036,0.049,0.09
		C33.792,4.533,33.8,4.57,33.81,4.59c0.01,0.021,0.049,0.011,0.115-0.03c0.061,0.054,0.07,0.117,0.031,0.191
		c0.006-0.007,0.154,0.084,0.441,0.271c0.127,0.113,0.197,0.184,0.211,0.211c0.02,0.073-0.014,0.134-0.1,0.181
		C34.501,5.4,34.472,5.37,34.417,5.323c-0.053-0.047-0.082-0.061-0.09-0.04c-0.02,0.033-0.018,0.096,0.006,0.186
		c0.023,0.091,0.059,0.133,0.105,0.126c-0.047,0-0.08,0.054-0.096,0.16c-0.018,0.107-0.025,0.227-0.025,0.357
		c0,0.13-0.004,0.209-0.01,0.235l0.02,0.011c-0.02,0.08-0.002,0.195,0.055,0.346c0.059,0.151,0.129,0.217,0.217,0.196
		c-0.088,0.021-0.02,0.164,0.201,0.432c0.039,0.054,0.066,0.084,0.08,0.091c0.02,0.014,0.061,0.038,0.121,0.075
		s0.109,0.07,0.15,0.101c0.039,0.03,0.074,0.065,0.1,0.105c0.027,0.033,0.061,0.108,0.102,0.226
		c0.039,0.117,0.086,0.196,0.141,0.236c-0.014,0.04,0.018,0.107,0.096,0.201c0.076,0.094,0.111,0.171,0.105,0.23
		c-0.008,0-0.016,0.004-0.025,0.011c-0.01,0.006-0.02,0.01-0.025,0.01c0.02,0.047,0.072,0.094,0.156,0.141
		c0.082,0.047,0.135,0.09,0.154,0.131c0.008,0.02,0.014,0.054,0.021,0.1c0.006,0.047,0.016,0.084,0.029,0.111
		c0.014,0.026,0.041,0.033,0.08,0.02c0.014-0.134-0.066-0.342-0.24-0.623c-0.102-0.167-0.158-0.264-0.172-0.291
		c-0.02-0.033-0.037-0.085-0.055-0.155s-0.031-0.119-0.045-0.146c0.014,0,0.033,0.005,0.061,0.015
		c0.025,0.01,0.055,0.021,0.084,0.035c0.031,0.014,0.057,0.026,0.076,0.04s0.027,0.023,0.02,0.03
		c-0.02,0.047-0.014,0.105,0.021,0.176c0.033,0.07,0.072,0.132,0.119,0.186s0.104,0.117,0.172,0.191
		c0.066,0.073,0.107,0.117,0.119,0.13c0.041,0.041,0.088,0.105,0.141,0.196c0.055,0.091,0.055,0.136,0,0.136
		c0.061,0,0.129,0.033,0.201,0.101c0.074,0.066,0.131,0.134,0.172,0.2c0.033,0.054,0.061,0.141,0.08,0.262
		c0.02,0.12,0.037,0.201,0.051,0.241c0.012,0.047,0.041,0.092,0.084,0.136c0.045,0.043,0.086,0.075,0.127,0.095
		c0.039,0.021,0.094,0.047,0.16,0.081c0.066,0.033,0.109,0.057,0.131,0.07c0.033,0.013,0.096,0.048,0.186,0.105
		c0.09,0.057,0.162,0.095,0.215,0.115c0.068,0.026,0.121,0.04,0.162,0.04c0.039,0,0.088-0.009,0.145-0.025s0.104-0.028,0.137-0.035
		c0.1-0.013,0.197,0.037,0.291,0.151c0.094,0.113,0.164,0.184,0.211,0.211c0.24,0.127,0.426,0.164,0.553,0.11
		c-0.014,0.007-0.012,0.031,0.004,0.075c0.018,0.044,0.045,0.096,0.08,0.155c0.037,0.061,0.068,0.109,0.092,0.146
		c0.023,0.037,0.041,0.065,0.055,0.086c0.033,0.04,0.094,0.09,0.182,0.15c0.086,0.061,0.146,0.11,0.18,0.15
		c0.041-0.026,0.064-0.057,0.07-0.09c-0.02,0.054,0.004,0.12,0.07,0.201c0.066,0.08,0.127,0.113,0.182,0.1
		c0.094-0.02,0.141-0.127,0.141-0.321c-0.209,0.101-0.373,0.04-0.492-0.181c0-0.007-0.01-0.025-0.025-0.055
		c-0.018-0.03-0.031-0.059-0.041-0.086c-0.01-0.026-0.018-0.055-0.025-0.085c-0.006-0.03-0.006-0.056,0-0.075
		c0.008-0.021,0.023-0.03,0.051-0.03c0.061,0,0.094-0.012,0.102-0.035c0.006-0.023,0-0.065-0.021-0.126
		c-0.02-0.061-0.033-0.104-0.039-0.131c-0.008-0.053-0.045-0.12-0.111-0.2c-0.066-0.081-0.107-0.131-0.121-0.151
		c-0.033,0.061-0.086,0.088-0.16,0.081s-0.127-0.037-0.16-0.091c0,0.007-0.006,0.025-0.016,0.056s-0.016,0.052-0.016,0.065
		c-0.086,0-0.137-0.004-0.15-0.011c0.008-0.02,0.016-0.078,0.025-0.176c0.01-0.097,0.021-0.172,0.035-0.226
		c0.008-0.026,0.025-0.067,0.055-0.121c0.031-0.053,0.057-0.102,0.076-0.146c0.02-0.043,0.033-0.085,0.041-0.125
		c0.006-0.04-0.01-0.072-0.047-0.096c-0.035-0.023-0.094-0.031-0.176-0.025c-0.127,0.007-0.213,0.074-0.26,0.201
		c-0.008,0.021-0.018,0.056-0.031,0.105s-0.029,0.089-0.049,0.115c-0.021,0.027-0.051,0.051-0.092,0.07
		c-0.047,0.021-0.127,0.027-0.24,0.021s-0.195-0.023-0.242-0.051c-0.086-0.053-0.162-0.15-0.225-0.291
		c-0.064-0.141-0.096-0.265-0.096-0.371c0-0.067,0.008-0.156,0.025-0.267c0.016-0.11,0.025-0.194,0.029-0.251
		s-0.016-0.139-0.055-0.246c0.02-0.014,0.051-0.045,0.09-0.096c0.041-0.05,0.074-0.085,0.102-0.105
		c0.012-0.007,0.027-0.012,0.045-0.015c0.016-0.004,0.031-0.004,0.045,0c0.014,0.003,0.027-0.002,0.039-0.016
		c0.014-0.013,0.023-0.033,0.031-0.06c-0.008-0.007-0.02-0.017-0.041-0.03c-0.02-0.021-0.033-0.03-0.039-0.03
		c0.047,0.02,0.143,0.015,0.285-0.016c0.145-0.029,0.236-0.024,0.277,0.016c0.1,0.073,0.174,0.066,0.221-0.021
		c0-0.006-0.008-0.038-0.025-0.095c-0.018-0.058-0.018-0.103-0.006-0.136c0.035,0.181,0.131,0.211,0.293,0.09
		c0.02,0.021,0.07,0.037,0.154,0.051s0.143,0.03,0.176,0.05c0.021,0.014,0.045,0.032,0.07,0.056
		c0.027,0.023,0.045,0.038,0.057,0.045c0.01,0.007,0.025,0.005,0.049-0.005s0.053-0.032,0.086-0.065
		c0.066,0.094,0.107,0.174,0.121,0.241c0.072,0.268,0.137,0.415,0.189,0.441c0.047,0.021,0.084,0.027,0.111,0.021
		s0.041-0.038,0.045-0.096c0.004-0.057,0.004-0.104,0-0.141c-0.004-0.036-0.008-0.078-0.016-0.125l-0.01-0.081
		c0-0.06,0-0.12,0-0.181l-0.01-0.08c-0.1-0.021-0.162-0.061-0.186-0.12c-0.023-0.061-0.018-0.122,0.016-0.187
		c0.033-0.063,0.084-0.125,0.15-0.186c0.006-0.007,0.033-0.019,0.08-0.035s0.1-0.038,0.156-0.065
		c0.057-0.026,0.098-0.054,0.125-0.08c0.141-0.127,0.191-0.244,0.15-0.352c0.047,0,0.084-0.03,0.111-0.091
		c-0.008,0-0.023-0.01-0.051-0.03c-0.027-0.02-0.053-0.036-0.076-0.05s-0.037-0.021-0.045-0.021c0.061-0.033,0.068-0.087,0.021-0.16
		c0.033-0.021,0.059-0.057,0.074-0.11c0.018-0.054,0.043-0.087,0.076-0.101c0.061,0.08,0.131,0.087,0.211,0.02
		c0.047-0.053,0.049-0.106,0.01-0.16c0.033-0.047,0.102-0.082,0.205-0.105s0.166-0.056,0.186-0.096
		c0.047,0.014,0.074,0.007,0.082-0.02c0.006-0.027,0.01-0.067,0.01-0.121s0.01-0.094,0.029-0.12c0.027-0.034,0.078-0.063,0.15-0.091
		c0.074-0.026,0.117-0.043,0.131-0.05l0.172-0.11c0.02-0.027,0.02-0.041,0-0.041c0.119,0.014,0.223-0.023,0.311-0.11
		c0.066-0.073,0.047-0.141-0.061-0.2c0.02-0.041,0.01-0.072-0.029-0.096c-0.041-0.023-0.092-0.042-0.15-0.056
		c0.02-0.006,0.059-0.008,0.115-0.005c0.057,0.004,0.092-0.001,0.105-0.015c0.1-0.067,0.076-0.121-0.07-0.161
		C42.128,5.079,41.986,5.119,41.812,5.233z M40.173,14.042c1.381-0.241,2.555-0.874,3.525-1.898c-0.02-0.02-0.061-0.035-0.125-0.045
		c-0.063-0.01-0.105-0.021-0.125-0.035c-0.121-0.047-0.201-0.074-0.242-0.08c0.008-0.047,0-0.091-0.023-0.131
		s-0.051-0.07-0.082-0.091c-0.029-0.02-0.07-0.047-0.125-0.08c-0.053-0.033-0.09-0.057-0.109-0.07
		c-0.014-0.014-0.037-0.033-0.07-0.061c-0.035-0.026-0.059-0.045-0.07-0.055c-0.014-0.011-0.039-0.025-0.076-0.046
		c-0.037-0.02-0.064-0.026-0.086-0.02c-0.02,0.007-0.053,0.01-0.1,0.01l-0.031,0.01c-0.02,0.007-0.037,0.016-0.055,0.025
		c-0.016,0.01-0.035,0.021-0.055,0.03s-0.033,0.021-0.041,0.03c-0.006,0.01-0.006,0.019,0,0.025
		c-0.141-0.114-0.26-0.188-0.361-0.222c-0.033-0.006-0.07-0.024-0.109-0.055c-0.041-0.03-0.076-0.054-0.105-0.07
		c-0.031-0.017-0.064-0.021-0.102-0.016c-0.037,0.007-0.074,0.03-0.115,0.07c-0.033,0.034-0.053,0.084-0.061,0.151
		c-0.006,0.066-0.014,0.11-0.02,0.13c-0.047-0.033-0.047-0.092,0-0.176c0.047-0.083,0.053-0.146,0.02-0.186
		c-0.02-0.04-0.055-0.056-0.105-0.045c-0.051,0.01-0.09,0.024-0.121,0.045c-0.029,0.021-0.068,0.049-0.115,0.085
		c-0.047,0.037-0.076,0.06-0.09,0.065c-0.014,0.007-0.041,0.025-0.086,0.056c-0.043,0.03-0.072,0.055-0.084,0.075
		c-0.021,0.026-0.041,0.067-0.061,0.12c-0.021,0.054-0.037,0.091-0.051,0.111c-0.014-0.027-0.053-0.049-0.115-0.065
		c-0.064-0.017-0.096-0.035-0.096-0.056c0.014,0.067,0.027,0.185,0.041,0.352c0.012,0.168,0.029,0.295,0.049,0.382
		c0.047,0.208,0.008,0.368-0.119,0.482c-0.182,0.167-0.279,0.301-0.293,0.401c-0.025,0.147,0.014,0.234,0.121,0.262
		c0,0.047-0.027,0.115-0.08,0.205c-0.053,0.091-0.076,0.163-0.07,0.217C40.154,13.922,40.16,13.976,40.173,14.042z"/>
</g>
<g>
	<path fill="#FFFFFF" d="M76.189,11.813c0,0.182-0.033,0.417-0.101,0.709c-0.066,0.291-0.137,0.521-0.211,0.688
		c-0.141,0.335-0.549,0.689-1.225,1.064c-0.63,0.342-1.253,0.513-1.869,0.513c-0.181,0-0.356-0.012-0.527-0.035
		c-0.17-0.023-0.363-0.065-0.577-0.126c-0.215-0.06-0.373-0.108-0.478-0.146c-0.104-0.036-0.289-0.105-0.557-0.206
		c-0.269-0.1-0.433-0.16-0.492-0.181c-0.657-0.234-1.242-0.512-1.758-0.833c-0.857-0.529-1.743-1.251-2.657-2.165
		s-1.636-1.8-2.165-2.658c-0.321-0.516-0.599-1.101-0.833-1.758c-0.021-0.06-0.081-0.224-0.181-0.492
		c-0.101-0.268-0.17-0.453-0.206-0.557c-0.037-0.104-0.086-0.263-0.146-0.478c-0.061-0.214-0.103-0.407-0.126-0.577
		c-0.023-0.171-0.035-0.347-0.035-0.527c0-0.616,0.171-1.239,0.513-1.869c0.375-0.676,0.729-1.084,1.064-1.225
		c0.167-0.074,0.396-0.145,0.688-0.211c0.292-0.067,0.527-0.101,0.709-0.101c0.094,0,0.164,0.01,0.211,0.03
		c0.12,0.04,0.298,0.294,0.532,0.763c0.073,0.128,0.174,0.309,0.301,0.543s0.245,0.446,0.352,0.638
		c0.107,0.19,0.211,0.37,0.312,0.537c0.021,0.027,0.079,0.11,0.176,0.251s0.169,0.26,0.216,0.356c0.047,0.098,0.07,0.193,0.07,0.287
		c0,0.134-0.095,0.301-0.286,0.502c-0.19,0.201-0.398,0.385-0.623,0.553c-0.224,0.167-0.432,0.345-0.622,0.532
		c-0.191,0.188-0.286,0.341-0.286,0.462c0,0.061,0.017,0.136,0.05,0.226c0.033,0.091,0.062,0.159,0.085,0.206
		s0.07,0.127,0.141,0.241s0.109,0.178,0.116,0.19c0.509,0.918,1.091,1.705,1.747,2.361c0.656,0.657,1.443,1.239,2.361,1.748
		c0.013,0.007,0.076,0.046,0.19,0.116s0.194,0.117,0.241,0.141s0.115,0.052,0.206,0.085c0.09,0.033,0.165,0.05,0.226,0.05
		c0.121,0,0.274-0.095,0.462-0.286c0.188-0.19,0.365-0.398,0.532-0.622c0.168-0.225,0.352-0.433,0.553-0.623
		c0.201-0.191,0.368-0.286,0.502-0.286c0.094,0,0.189,0.023,0.287,0.07c0.097,0.047,0.216,0.119,0.356,0.216
		s0.224,0.155,0.251,0.176c0.167,0.101,0.347,0.204,0.537,0.312c0.191,0.106,0.403,0.225,0.638,0.352s0.415,0.228,0.543,0.301
		c0.469,0.234,0.723,0.412,0.763,0.532C76.179,11.648,76.189,11.719,76.189,11.813z"/>
</g>
</svg>
